<svg xmlns="http://www.w3.org/2000/svg" width="512" height="512" viewBox="0 0 512 512">
  <rect width="512" height="512" rx="120" fill="#1DB954"/>
  <path fill="#FFFFFF" d="M371.4 349.5c-4.2 6.8-13.1 9-19.9 4.8-54.6-33.4-123.3-40.9-204.3-22.4-7.7 1.8-15.5-3.1-17.3-10.8-1.8-7.7 3.1-15.5 10.8-17.3 88.6-20.3 164.6-11.7 225.9 25.8 6.8 4.2 9 13.1 4.8 19.9zm26.6-59.2c-5.3 8.6-16.6 11.3-25.2 6-62.5-38.4-157.8-49.6-231.7-27.1-9.7 3-20.1-2.5-23.1-12.2-3-9.7 2.5-20.1 12.2-23.1 84.5-25.7 189.6-13.3 261.8 31.2 8.6 5.3 11.3 16.6 6 25.2zm2.7-61.7C325.8 184 213.9 180.2 149.2 199.9c-11.4 3.5-23.5-3-27-14.4-3.5-11.4 3-23.5 14.4-27 74.3-22.5 198.1-18.1 283.4 32.5 10.3 6.1 13.7 19.5 7.6 29.8-6.1 10.3-19.5 13.7-29.8 7.6z"/>
</svg>
